<svg width="32" height="32" viewBox="0 0 32 32" fill="none" xmlns="http://www.w3.org/2000/svg">
<rect width="32" height="32" rx="4" fill="white"/>
<path d="M27.5836 16.2998C27.5836 15.3105 27.5034 14.5885 27.3296 13.8398H16.0325V18.3052H22.6636C22.53 19.4149 21.8081 21.086 20.2037 22.209L20.1812 22.3585L23.7532 25.1256L24.0006 25.1503C26.2734 23.0513 27.5836 19.963 27.5836 16.2998Z" fill="#4285F4"/>
<path d="M16.0325 28.0648C19.2812 28.0648 22.0085 26.9952 24.0006 25.1503L20.2037 22.209C19.1876 22.9176 17.8239 23.4122 16.0325 23.4122C12.8506 23.4122 10.15 21.3133 9.18729 18.4121L9.04618 18.4241L5.33202 21.2985L5.28345 21.4336C7.2621 25.3641 11.3264 28.0648 16.0325 28.0648Z" fill="#34A853"/>
<path d="M9.18728 18.4121C8.93326 17.6635 8.78626 16.8612 8.78626 16.0324C8.78626 15.2034 8.93326 14.4013 9.17391 13.6526L9.16718 13.4932L5.40648 10.5726L5.28343 10.6311C4.46793 12.2622 4 14.0938 4 16.0324C4 17.9709 4.46793 19.8025 5.28343 21.4336L9.18728 18.4121" fill="#FBBC05"/>
<path d="M16.0328 8.65252C18.2922 8.65252 19.8163 9.62848 20.6854 10.4441L24.0812 7.12844C21.9956 5.18988 19.2816 4 16.0328 4C11.3268 4 7.26246 6.7006 5.28381 10.6312L9.17429 13.6527C10.1503 10.7515 12.8509 8.65252 16.0328 8.65252" fill="#EB4335"/>
</svg>
